<?xml version="1.0" encoding="UTF-8" standalone="no"?>
<!-- Created with Inkscape (http://www.inkscape.org/) -->

<svg
   xmlns:dc="http://purl.org/dc/elements/1.1/"
   xmlns:cc="http://creativecommons.org/ns#"
   xmlns:rdf="http://www.w3.org/1999/02/22-rdf-syntax-ns#"
   xmlns:svg="http://www.w3.org/2000/svg"
   xmlns="http://www.w3.org/2000/svg"
   xmlns:sodipodi="http://sodipodi.sourceforge.net/DTD/sodipodi-0.dtd"
   xmlns:inkscape="http://www.inkscape.org/namespaces/inkscape"
   width="840.36597mm"
   height="200.6506mm"
   viewBox="0 0 840.36596 200.6506"
   version="1.1"
   id="svg8"
   inkscape:version="0.92.4 (5da689c313, 2019-01-14)"
   sodipodi:docname="logo.svg">
  <defs
     id="defs2" />
  <sodipodi:namedview
     id="base"
     pagecolor="#ffffff"
     bordercolor="#666666"
     borderopacity="1.0"
     inkscape:pageopacity="0.0"
     inkscape:pageshadow="2"
     inkscape:zoom="0.49497475"
     inkscape:cx="1326.5303"
     inkscape:cy="397.71998"
     inkscape:document-units="mm"
     inkscape:current-layer="layer1"
     showgrid="false"
     inkscape:snap-bbox="false"
     inkscape:snap-global="false"
     inkscape:window-width="1920"
     inkscape:window-height="1017"
     inkscape:window-x="-8"
     inkscape:window-y="-8"
     inkscape:window-maximized="1"
     showborder="true"
     inkscape:showpageshadow="false"
     fit-margin-top="0"
     fit-margin-left="0"
     fit-margin-right="0"
     fit-margin-bottom="0" />
  <metadata
     id="metadata5">
    <rdf:RDF>
      <cc:Work
         rdf:about="">
        <dc:format>image/svg+xml</dc:format>
        <dc:type
           rdf:resource="http://purl.org/dc/dcmitype/StillImage" />
        <dc:title></dc:title>
      </cc:Work>
    </rdf:RDF>
  </metadata>
  <g
     inkscape:label="Capa 1"
     inkscape:groupmode="layer"
     id="layer1"
     transform="translate(0.23365226,-96.589786)">
    <g
       id="g38"
       style="fill:#f9f9f9;stroke:#f9f9f9;stroke-opacity:1">
      <path
         sodipodi:nodetypes="cccccccccccccccccc"
         inkscape:connector-curvature="0"
         id="path3768"
         d="M 20,97 120,263.7 240,97 360,263.7 V 97 L 480,263.7 600,97 720,263.7 840,97 v 33.3 L 720,297 600.22619,130.3 480,297 H 360 L 240,130.3 120,297 0,97 Z"
         style="fill:#f9f9f9;stroke:#f9f9f9;stroke-width:0.26458332px;stroke-linecap:butt;stroke-linejoin:miter;stroke-opacity:1" />
    </g>
    <path
       style="fill:none;stroke-width:2.02030516"
       d="m 1437.7741,462.94045 c 0,-115.74664 0.3538,-210.06963 0.7861,-209.60665 1.0012,1.07217 293.45,415.22173 295.1623,417.99213 0.8631,1.39662 -46.7276,2.06297 -147.3367,2.06297 h -148.6117 z"
       id="path13"
       inkscape:connector-curvature="0"
       transform="matrix(0.26458333,0,0,0.26458333,0,98.3)" />
    <path
       style="fill:none;stroke-width:2.02030516"
       d="m 1437.7741,462.94045 c 0,-115.74664 0.3538,-210.06963 0.7861,-209.60665 1.0012,1.07217 293.45,415.22173 295.1623,417.99213 0.8631,1.39662 -46.7276,2.06297 -147.3367,2.06297 h -148.6117 z"
       id="path15"
       inkscape:connector-curvature="0"
       transform="matrix(0.26458333,0,0,0.26458333,0,98.3)" />
    <path
       style="fill:none;stroke-width:2.02030516"
       d="m 1437.7741,462.94045 c 0,-115.74664 0.3538,-210.06963 0.7861,-209.60665 1.0012,1.07217 293.45,415.22173 295.1623,417.99213 0.8631,1.39662 -46.7276,2.06297 -147.3367,2.06297 h -148.6117 z"
       id="path17"
       inkscape:connector-curvature="0"
       transform="matrix(0.26458333,0,0,0.26458333,0,98.3)" />
    <path
       style="fill:none;stroke-width:2.02030516"
       d="m 1437.7741,462.94045 c 0,-115.74664 0.3538,-210.06963 0.7861,-209.60665 1.0012,1.07217 293.45,415.22173 295.1623,417.99213 0.8631,1.39662 -46.7276,2.06297 -147.3367,2.06297 h -148.6117 z"
       id="path19"
       inkscape:connector-curvature="0"
       transform="matrix(0.26458333,0,0,0.26458333,0,98.3)" />
    <path
       style="fill:none;stroke-width:2.02030516"
       d="m 1437.7741,462.94045 c 0,-115.74664 0.3538,-210.06963 0.7861,-209.60665 1.0012,1.07217 293.45,415.22173 295.1623,417.99213 0.8631,1.39662 -46.7276,2.06297 -147.3367,2.06297 h -148.6117 z"
       id="path21"
       inkscape:connector-curvature="0"
       transform="matrix(0.26458333,0,0,0.26458333,0,98.3)" />
    <path
       style="fill:none;stroke-width:2.02030516"
       d="m 1437.7741,462.94045 c 0,-115.74664 0.3538,-210.06963 0.7861,-209.60665 1.0012,1.07217 293.45,415.22173 295.1623,417.99213 0.8631,1.39662 -46.7276,2.06297 -147.3367,2.06297 h -148.6117 z"
       id="path23"
       inkscape:connector-curvature="0"
       transform="matrix(0.26458333,0,0,0.26458333,0,98.3)" />
    <path
       style="fill:none;stroke-width:2.02030516"
       d="m 1437.7741,462.94045 c 0,-115.74664 0.3538,-210.06963 0.7861,-209.60665 1.0012,1.07217 293.45,415.22173 295.1623,417.99213 0.8631,1.39662 -46.7276,2.06297 -147.3367,2.06297 h -148.6117 z"
       id="path25"
       inkscape:connector-curvature="0"
       transform="matrix(0.26458333,0,0,0.26458333,0,98.3)" />
    <path
       style="fill:none;stroke-width:2.02030516"
       d="m 1437.7741,462.94045 c 0,-115.74664 0.3538,-210.06963 0.7861,-209.60665 1.0012,1.07217 293.45,415.22173 295.1623,417.99213 0.8631,1.39662 -46.7276,2.06297 -147.3367,2.06297 h -148.6117 z"
       id="path27"
       inkscape:connector-curvature="0"
       transform="matrix(0.26458333,0,0,0.26458333,0,98.3)" />
    <path
       style="fill:none;stroke-width:2.02030516"
       d="m 1437.7741,462.94045 c 0,-115.74664 0.3538,-210.06963 0.7861,-209.60665 1.0012,1.07217 293.45,415.22173 295.1623,417.99213 0.8631,1.39662 -46.7276,2.06297 -147.3367,2.06297 h -148.6117 z"
       id="path29"
       inkscape:connector-curvature="0"
       transform="matrix(0.26458333,0,0,0.26458333,0,98.3)" />
    <path
       style="fill:none;stroke-width:2.02030516"
       d="m 1437.7741,462.94045 c 0,-115.74664 0.3538,-210.06963 0.7861,-209.60665 1.0012,1.07217 293.45,415.22173 295.1623,417.99213 0.8631,1.39662 -46.7276,2.06297 -147.3367,2.06297 h -148.6117 z"
       id="path31"
       inkscape:connector-curvature="0"
       transform="matrix(0.26458333,0,0,0.26458333,0,98.3)" />
  </g>
</svg>
